{
	"asset":{
		"generator":"Khronos glTF Blender I/O v4.5.51",
		"version":"2.0"
	},
	"scene":0,
	"scenes":[
		{
			"name":"Scene",
			"nodes":[
				0,
				1,
				2,
				3,
				4,
				5
			]
		}
	],
	"nodes":[
		{
			"mesh":0,
			"name":"03",
			"translation":[
				18.599355697631836,
				0.02470611408352852,
				-41.77900695800781
			]
		},
		{
			"mesh":1,
			"name":"04",
			"translation":[
				18.599355697631836,
				0.02470611408352852,
				-41.77900695800781
			]
		},
		{
			"mesh":2,
			"name":"01",
			"scale":[
				6.600000381469727,
				6.600000381469727,
				6.600000381469727
			],
			"translation":[
				18.599355697631836,
				0.02470611408352852,
				-41.77900695800781
			]
		},
		{
			"mesh":3,
			"name":"02",
			"translation":[
				18.599355697631836,
				0.02470611408352852,
				-41.77900695800781
			]
		},
		{
			"mesh":4,
			"name":"05",
			"translation":[
				18.599355697631836,
				0.02470611408352852,
				-41.77900695800781
			]
		},
		{
			"mesh":5,
			"name":"06",
			"translation":[
				22.6552677154541,
				-0.9080016613006592,
				-41.7984504699707
			]
		}
	],
	"materials":[
		{
			"doubleSided":true,
			"name":"\u5176\u4f59\u4e9a\u5149\u6750\u8d28",
			"pbrMetallicRoughness":{
				"baseColorFactor":[
					0.07323913276195526,
					0.07323913276195526,
					0.07323913276195526,
					1
				],
				"metallicFactor":0,
				"roughnessFactor":0.5
			}
		},
		{
			"doubleSided":true,
			"name":"\u9676\u74f7\u7247",
			"pbrMetallicRoughness":{
				"baseColorFactor":[
					0.31855452060699463,
					0.31855452060699463,
					0.31855452060699463,
					1
				],
				"metallicFactor":0,
				"roughnessFactor":0
			}
		}
	],
	"meshes":[
		{
			"name":"Mesh.009",
			"primitives":[
				{
					"attributes":{
						"POSITION":0,
						"NORMAL":1,
						"TEXCOORD_0":2,
						"TEXCOORD_1":3,
						"TEXCOORD_2":4
					},
					"indices":5,
					"material":0
				},
				{
					"attributes":{
						"POSITION":6,
						"NORMAL":7,
						"TEXCOORD_0":8,
						"TEXCOORD_1":9,
						"TEXCOORD_2":10
					},
					"indices":11,
					"material":1
				}
			]
		},
		{
			"name":"Mesh.011",
			"primitives":[
				{
					"attributes":{
						"POSITION":12,
						"NORMAL":13,
						"TEXCOORD_0":14,
						"TEXCOORD_1":15,
						"TEXCOORD_2":16
					},
					"indices":17,
					"material":0
				}
			]
		},
		{
			"name":"Mesh.119",
			"primitives":[
				{
					"attributes":{
						"POSITION":18,
						"NORMAL":19,
						"TEXCOORD_0":20,
						"TEXCOORD_1":21,
						"TEXCOORD_2":22
					},
					"indices":23,
					"material":0
				}
			]
		},
		{
			"name":"Mesh.014",
			"primitives":[
				{
					"attributes":{
						"POSITION":24,
						"NORMAL":25,
						"TEXCOORD_0":26,
						"TEXCOORD_1":27,
						"TEXCOORD_2":28
					},
					"indices":29,
					"material":0
				}
			]
		},
		{
			"name":"Mesh.198",
			"primitives":[
				{
					"attributes":{
						"POSITION":30,
						"NORMAL":31,
						"TEXCOORD_0":32,
						"TEXCOORD_1":33,
						"TEXCOORD_2":34
					},
					"indices":35,
					"material":0
				}
			]
		},
		{
			"name":"Mesh.199",
			"primitives":[
				{
					"attributes":{
						"POSITION":36,
						"NORMAL":37,
						"TEXCOORD_0":38,
						"TEXCOORD_1":39,
						"TEXCOORD_2":40
					},
					"indices":41,
					"material":0
				}
			]
		}
	],
	"accessors":[
		{
			"bufferView":0,
			"componentType":5126,
			"count":11987,
			"max":[
				-6.971643447875977,
				7.870265960693359,
				81.18144989013672
			],
			"min":[
				-28.361831665039062,
				-2.0767014026641846,
				-3.728119373321533
			],
			"type":"VEC3"
		},
		{
			"bufferView":1,
			"componentType":5126,
			"count":11987,
			"type":"VEC3"
		},
		{
			"bufferView":2,
			"componentType":5126,
			"count":11987,
			"type":"VEC2"
		},
		{
			"bufferView":3,
			"componentType":5126,
			"count":11987,
			"type":"VEC2"
		},
		{
			"bufferView":4,
			"componentType":5126,
			"count":11987,
			"type":"VEC2"
		},
		{
			"bufferView":5,
			"componentType":5123,
			"count":18888,
			"type":"SCALAR"
		},
		{
			"bufferView":6,
			"componentType":5126,
			"count":6720,
			"max":[
				-9.521021842956543,
				7.762730121612549,
				79.88984680175781
			],
			"min":[
				-25.171167373657227,
				7.261972427368164,
				-2.3076155185699463
			],
			"type":"VEC3"
		},
		{
			"bufferView":7,
			"componentType":5126,
			"count":6720,
			"type":"VEC3"
		},
		{
			"bufferView":8,
			"componentType":5126,
			"count":6720,
			"type":"VEC2"
		},
		{
			"bufferView":9,
			"componentType":5126,
			"count":6720,
			"type":"VEC2"
		},
		{
			"bufferView":10,
			"componentType":5126,
			"count":6720,
			"type":"VEC2"
		},
		{
			"bufferView":11,
			"componentType":5123,
			"count":11088,
			"type":"SCALAR"
		},
		{
			"bufferView":12,
			"componentType":5126,
			"count":176,
			"max":[
				-27.16789436340332,
				1.7939653396606445,
				76.79289245605469
			],
			"min":[
				-27.57345199584961,
				0.21772752702236176,
				19.267070770263672
			],
			"type":"VEC3"
		},
		{
			"bufferView":13,
			"componentType":5126,
			"count":176,
			"type":"VEC3"
		},
		{
			"bufferView":14,
			"componentType":5126,
			"count":176,
			"type":"VEC2"
		},
		{
			"bufferView":15,
			"componentType":5126,
			"count":176,
			"type":"VEC2"
		},
		{
			"bufferView":16,
			"componentType":5126,
			"count":176,
			"type":"VEC2"
		},
		{
			"bufferView":17,
			"componentType":5123,
			"count":264,
			"type":"SCALAR"
		},
		{
			"bufferView":18,
			"componentType":5126,
			"count":13892,
			"max":[
				-1.6534078121185303,
				0.6566383838653564,
				13.252358436584473
			],
			"min":[
				-3.72511625289917,
				-0.030989080667495728,
				3.7749993801116943
			],
			"type":"VEC3"
		},
		{
			"bufferView":19,
			"componentType":5126,
			"count":13892,
			"type":"VEC3"
		},
		{
			"bufferView":20,
			"componentType":5126,
			"count":13892,
			"type":"VEC2"
		},
		{
			"bufferView":21,
			"componentType":5126,
			"count":13892,
			"type":"VEC2"
		},
		{
			"bufferView":22,
			"componentType":5126,
			"count":13892,
			"type":"VEC2"
		},
		{
			"bufferView":23,
			"componentType":5123,
			"count":22950,
			"type":"SCALAR"
		},
		{
			"bufferView":24,
			"componentType":5126,
			"count":5140,
			"max":[
				-9.67961311340332,
				7.811638355255127,
				80.15422058105469
			],
			"min":[
				-25.02128791809082,
				6.593564510345459,
				-2.255525827407837
			],
			"type":"VEC3"
		},
		{
			"bufferView":25,
			"componentType":5126,
			"count":5140,
			"type":"VEC3"
		},
		{
			"bufferView":26,
			"componentType":5126,
			"count":5140,
			"type":"VEC2"
		},
		{
			"bufferView":27,
			"componentType":5126,
			"count":5140,
			"type":"VEC2"
		},
		{
			"bufferView":28,
			"componentType":5126,
			"count":5140,
			"type":"VEC2"
		},
		{
			"bufferView":29,
			"componentType":5123,
			"count":10218,
			"type":"SCALAR"
		},
		{
			"bufferView":30,
			"componentType":5126,
			"count":24920,
			"max":[
				-10.73485279083252,
				4.94077730178833,
				79.89909362792969
			],
			"min":[
				-26.384492874145508,
				0.00501219043508172,
				-3.1047918796539307
			],
			"type":"VEC3"
		},
		{
			"bufferView":31,
			"componentType":5126,
			"count":24920,
			"type":"VEC3"
		},
		{
			"bufferView":32,
			"componentType":5126,
			"count":24920,
			"type":"VEC2"
		},
		{
			"bufferView":33,
			"componentType":5126,
			"count":24920,
			"type":"VEC2"
		},
		{
			"bufferView":34,
			"componentType":5126,
			"count":24920,
			"type":"VEC2"
		},
		{
			"bufferView":35,
			"componentType":5123,
			"count":41304,
			"type":"SCALAR"
		},
		{
			"bufferView":36,
			"componentType":5126,
			"count":10486,
			"max":[
				-12.382326126098633,
				4.232645511627197,
				46.99766540527344
			],
			"min":[
				-34.30010986328125,
				0.8995643258094788,
				30.631723403930664
			],
			"type":"VEC3"
		},
		{
			"bufferView":37,
			"componentType":5126,
			"count":10486,
			"type":"VEC3"
		},
		{
			"bufferView":38,
			"componentType":5126,
			"count":10486,
			"type":"VEC2"
		},
		{
			"bufferView":39,
			"componentType":5126,
			"count":10486,
			"type":"VEC2"
		},
		{
			"bufferView":40,
			"componentType":5126,
			"count":10486,
			"type":"VEC2"
		},
		{
			"bufferView":41,
			"componentType":5123,
			"count":17652,
			"type":"SCALAR"
		}
	],
	"bufferViews":[
		{
			"buffer":0,
			"byteLength":143844,
			"byteOffset":0,
			"target":34962
		},
		{
			"buffer":0,
			"byteLength":143844,
			"byteOffset":143844,
			"target":34962
		},
		{
			"buffer":0,
			"byteLength":95896,
			"byteOffset":287688,
			"target":34962
		},
		{
			"buffer":0,
			"byteLength":95896,
			"byteOffset":383584,
			"target":34962
		},
		{
			"buffer":0,
			"byteLength":95896,
			"byteOffset":479480,
			"target":34962
		},
		{
			"buffer":0,
			"byteLength":37776,
			"byteOffset":575376,
			"target":34963
		},
		{
			"buffer":0,
			"byteLength":80640,
			"byteOffset":613152,
			"target":34962
		},
		{
			"buffer":0,
			"byteLength":80640,
			"byteOffset":693792,
			"target":34962
		},
		{
			"buffer":0,
			"byteLength":53760,
			"byteOffset":774432,
			"target":34962
		},
		{
			"buffer":0,
			"byteLength":53760,
			"byteOffset":828192,
			"target":34962
		},
		{
			"buffer":0,
			"byteLength":53760,
			"byteOffset":881952,
			"target":34962
		},
		{
			"buffer":0,
			"byteLength":22176,
			"byteOffset":935712,
			"target":34963
		},
		{
			"buffer":0,
			"byteLength":2112,
			"byteOffset":957888,
			"target":34962
		},
		{
			"buffer":0,
			"byteLength":2112,
			"byteOffset":960000,
			"target":34962
		},
		{
			"buffer":0,
			"byteLength":1408,
			"byteOffset":962112,
			"target":34962
		},
		{
			"buffer":0,
			"byteLength":1408,
			"byteOffset":963520,
			"target":34962
		},
		{
			"buffer":0,
			"byteLength":1408,
			"byteOffset":964928,
			"target":34962
		},
		{
			"buffer":0,
			"byteLength":528,
			"byteOffset":966336,
			"target":34963
		},
		{
			"buffer":0,
			"byteLength":166704,
			"byteOffset":966864,
			"target":34962
		},
		{
			"buffer":0,
			"byteLength":166704,
			"byteOffset":1133568,
			"target":34962
		},
		{
			"buffer":0,
			"byteLength":111136,
			"byteOffset":1300272,
			"target":34962
		},
		{
			"buffer":0,
			"byteLength":111136,
			"byteOffset":1411408,
			"target":34962
		},
		{
			"buffer":0,
			"byteLength":111136,
			"byteOffset":1522544,
			"target":34962
		},
		{
			"buffer":0,
			"byteLength":45900,
			"byteOffset":1633680,
			"target":34963
		},
		{
			"buffer":0,
			"byteLength":61680,
			"byteOffset":1679580,
			"target":34962
		},
		{
			"buffer":0,
			"byteLength":61680,
			"byteOffset":1741260,
			"target":34962
		},
		{
			"buffer":0,
			"byteLength":41120,
			"byteOffset":1802940,
			"target":34962
		},
		{
			"buffer":0,
			"byteLength":41120,
			"byteOffset":1844060,
			"target":34962
		},
		{
			"buffer":0,
			"byteLength":41120,
			"byteOffset":1885180,
			"target":34962
		},
		{
			"buffer":0,
			"byteLength":20436,
			"byteOffset":1926300,
			"target":34963
		},
		{
			"buffer":0,
			"byteLength":299040,
			"byteOffset":1946736,
			"target":34962
		},
		{
			"buffer":0,
			"byteLength":299040,
			"byteOffset":2245776,
			"target":34962
		},
		{
			"buffer":0,
			"byteLength":199360,
			"byteOffset":2544816,
			"target":34962
		},
		{
			"buffer":0,
			"byteLength":199360,
			"byteOffset":2744176,
			"target":34962
		},
		{
			"buffer":0,
			"byteLength":199360,
			"byteOffset":2943536,
			"target":34962
		},
		{
			"buffer":0,
			"byteLength":82608,
			"byteOffset":3142896,
			"target":34963
		},
		{
			"buffer":0,
			"byteLength":125832,
			"byteOffset":3225504,
			"target":34962
		},
		{
			"buffer":0,
			"byteLength":125832,
			"byteOffset":3351336,
			"target":34962
		},
		{
			"buffer":0,
			"byteLength":83888,
			"byteOffset":3477168,
			"target":34962
		},
		{
			"buffer":0,
			"byteLength":83888,
			"byteOffset":3561056,
			"target":34962
		},
		{
			"buffer":0,
			"byteLength":83888,
			"byteOffset":3644944,
			"target":34962
		},
		{
			"buffer":0,
			"byteLength":35304,
			"byteOffset":3728832,
			"target":34963
		}
	],
	"buffers":[
		{
			"byteLength":3764136,
			"uri":"Grid.bin"
		}
	]
}
